<svg id="Capa_1" data-name="Capa 1" xmlns="http://www.w3.org/2000/svg" viewBox="0 0 17.44 17.44"><defs><style>.cls-1{fill:#fff;}</style></defs><path class="cls-1" d="M12.41,17.24a1.52,1.52,0,0,1,2.08-.87l.68.33a1.52,1.52,0,0,0,2-2L16.87,14a1.52,1.52,0,0,1,.86-2.08l.71-.25a1.52,1.52,0,0,0,0-2.86l-.71-.25a1.51,1.51,0,0,1-.86-2.08l.32-.68a1.51,1.51,0,0,0-2-2l-.68.32a1.52,1.52,0,0,1-2.08-.86l-.25-.71a1.52,1.52,0,0,0-2.86,0l-.25.71A1.52,1.52,0,0,1,7,4.09l-.67-.32a1.52,1.52,0,0,0-2,2l.33.68a1.52,1.52,0,0,1-.87,2.08L3,8.8a1.52,1.52,0,0,0,0,2.86l.7.25A1.53,1.53,0,0,1,4.59,14l-.33.67a1.53,1.53,0,0,0,2,2L7,16.37a1.52,1.52,0,0,1,2.08.87l.25.7a1.52,1.52,0,0,0,2.86,0ZM6.6,11.94a4.47,4.47,0,1,1,5.84,2.42A4.46,4.46,0,0,1,6.6,11.94Z" transform="translate(-2.01 -1.51)"/></svg>