<svg id="Capa_1" data-name="Capa 1" xmlns="http://www.w3.org/2000/svg" viewBox="0 0 30.06 30.06"><defs><style>.cls-1{fill:#fff;}</style></defs><path class="cls-1" d="M37.39,22.41a15,15,0,1,0,15,15A15,15,0,0,0,37.39,22.41Zm0,26.59A11.56,11.56,0,1,1,49,37.44,11.56,11.56,0,0,1,37.39,49Z" transform="translate(-22.37 -22.41)"/><rect class="cls-1" x="12.83" y="8.35" width="4.41" height="6.97"/><rect class="cls-1" x="12.83" y="16.68" width="4.41" height="3.49"/><rect class="cls-1" x="12.83" y="21.52" width="4.41" height="1.57"/><rect class="cls-1" x="12.83" y="24.1" width="4.41" height="0.78"/><polygon class="cls-1" points="15.03 11.13 19.81 11.13 17.42 8.15 15.03 5.17 12.64 8.15 10.24 11.13 15.03 11.13"/></svg>